<svg width="580" height="400" xmlns="http://www.w3.org/2000/svg">
 <!-- Created with SVG Editor - http://github.com/mzalive/SVG Editor/ -->

 <g>
  <title>background</title>
  <rect fill="#fff" id="canvas_background" height="402" width="582" y="-1" x="-1"/>
  <g display="none" overflow="visible" y="0" x="0" height="100%" width="100%" id="canvasGrid">
   <rect fill="url(#gridpattern)" stroke-width="0" y="0" x="0" height="100%" width="100%"/>
  </g>
 </g>
 <g>
  <title>Layer 1</title>
  <g stroke-opacity="0" stroke="#000000" fill="#fbfbfb" id="svg_10">
   <g id="svg_7">
    <path fill-rule="evenodd" fill="#1c1c1c" stroke="#000000" d="m209.838,149.264c-1.012,0.439 -1.561,1.145 -1.866,2.403c-0.203,0.838 -0.17,101.809 0.034,103.166c0.089,0.596 0.21,1.402 0.268,1.792l0.105,0.708l3.039,0l3.039,0l0.098,-0.708c0.054,-0.39 0.201,-1.346 0.325,-2.125c0.293,-1.823 0.226,-101.391 -0.068,-102.705c-0.493,-2.2 -2.906,-3.428 -4.974,-2.531m-93.797,8.409c-5.773,0.722 -8.162,3.242 -9.316,9.827c-0.655,3.736 -0.43,71.528 0.248,74.635c1.135,5.206 3.008,6.267 11.027,6.246c5.693,-0.014 7.387,-0.361 8.582,-1.757c1.163,-1.36 1.139,-1.114 1.178,-11.957c0.041,-11.336 0.093,-11.79 1.405,-12.333c1.4,-0.58 2.415,0.449 10.091,10.224c2.407,3.065 3.977,5.006 8.625,10.664c4.496,5.472 4.058,5.336 16.619,5.154l8.75,-0.126l0.918,-0.451c2.224,-1.092 2.034,-3.064 -0.605,-6.281c-0.67,-0.816 -2.102,-2.681 -3.182,-4.144c-1.081,-1.463 -3.702,-4.966 -5.827,-7.785c-6.925,-9.189 -7.024,-10.179 -1.478,-14.75c7.122,-5.869 11.377,-13.238 12.247,-21.207c2.039,-18.674 -8.361,-32.862 -25.99,-35.457c-3.403,-0.501 -30.082,-0.903 -33.292,-0.502m129.448,19.497c-4.379,0.334 -6.212,2.013 -6.818,6.247c-0.32,2.235 -0.149,40.377 0.187,41.608c0.788,2.888 2.433,3.9 6.309,3.881c4.763,-0.024 5.456,-0.942 5.654,-7.489c0.136,-4.483 0.34,-5.4 1.281,-5.758c1.097,-0.417 1.978,0.29 4.85,3.891c7.838,9.828 7.449,9.575 14.44,9.404c7.284,-0.178 7.55,-1.111 2.306,-8.081c-5.753,-7.647 -5.831,-8.201 -1.716,-12.247c4.221,-4.15 5.899,-8.01 5.921,-13.626c0.038,-9.136 -5.517,-15.866 -14.383,-17.425c-2.44,-0.429 -14.238,-0.694 -18.031,-0.405m-104.322,0.589c8.639,1.019 11.906,3.867 12.127,10.574c0.337,10.205 -5.289,14.923 -16.919,14.187c-6.652,-0.421 -7.133,-1.228 -7.112,-11.937c0.027,-13.253 0.839,-14.129 11.904,-12.824m211.583,0.591c-5.286,0.55 -7.85,2.549 -8.849,6.9c-0.415,1.809 -0.529,15.306 -0.167,19.787c0.192,2.369 0.266,5.421 0.266,10.924c0,12.589 -1.052,11.686 13.667,11.722c10.175,0.024 10.605,-0.005 13.271,-0.912c4.274,-1.454 7.846,-4.956 10.372,-10.17c6.551,-13.523 1.991,-30.086 -9.872,-35.851c-4.003,-1.945 -12.531,-3.041 -18.688,-2.4m-50.333,0.246c-0.184,0.041 -0.741,0.157 -1.238,0.258c-2.793,0.566 -4.57,2.449 -5.283,5.598c-0.575,2.535 -0.717,38.919 -0.159,40.422c0.377,1.016 1.489,2.014 2.556,2.295c0.936,0.247 21.765,0.239 23.073,-0.009c2.602,-0.492 3.647,-1.743 3.768,-4.512c0.21,-4.81 -0.843,-5.444 -9.384,-5.644c-3.823,-0.089 -5.868,-0.201 -6.285,-0.344c-2.217,-0.759 -3.194,-3.401 -2.075,-5.608c0.922,-1.818 1.966,-2.195 6.61,-2.388c7.417,-0.309 10.211,-2.153 10.618,-7.009c0.258,-3.071 -0.943,-3.938 -5.778,-4.172c-5.73,-0.278 -8.253,-0.471 -8.923,-0.684c-3.231,-1.025 -3.197,-6.659 0.047,-7.641c0.348,-0.105 2.846,-0.248 5.703,-0.325c4.822,-0.131 5.612,-0.207 6.719,-0.647c3.673,-1.458 3.726,-8.108 0.075,-9.289c-0.84,-0.271 -18.947,-0.543 -20.044,-0.301m106.637,0.147c-3.075,0.568 -4.785,2.192 -5.51,5.235c-0.287,1.207 -0.598,37.571 -0.34,39.834c0.201,1.762 0.924,2.711 2.516,3.304c0.839,0.312 21.855,0.333 23.363,0.022c4.275,-0.879 4.998,-7.86 1,-9.663c-0.793,-0.358 -1.107,-0.381 -6.583,-0.493c-8.136,-0.166 -9.16,-0.641 -9.165,-4.255c-0.004,-3.225 1.116,-3.883 6.949,-4.075c8.201,-0.271 10.918,-2.191 10.691,-7.555c-0.119,-2.806 -1.052,-3.425 -5.469,-3.63c-8.973,-0.415 -9.707,-0.524 -10.706,-1.592c-1.488,-1.591 -1.342,-4.076 0.327,-5.545c1.313,-1.156 2.233,-1.341 7.466,-1.506c6.712,-0.211 7.897,-0.664 8.693,-3.324c0.876,-2.928 0.052,-5.57 -2.038,-6.534l-0.831,-0.383l-9.584,-0.03c-7.349,-0.023 -9.862,0.021 -10.779,0.19m78.946,0.196c-5.457,1.037 -7.531,4.153 -12.575,18.894c-3.544,10.359 -4.699,10.514 -8.085,1.084c-0.659,-1.834 -1.783,-4.834 -2.498,-6.667c-0.716,-1.833 -1.845,-4.833 -2.509,-6.667c-2.28,-6.288 -2.524,-6.5 -7.5,-6.5c-6.337,0 -6.301,-0.408 -1.246,13.917c0.696,1.971 1.63,4.633 2.076,5.917c0.447,1.283 1.41,4.021 2.141,6.083c0.73,2.063 2.373,6.712 3.65,10.333c3.995,11.325 4.75,12.153 10.935,11.976c3.965,-0.114 5.425,-1.746 7.28,-8.142c0.432,-1.49 4.176,-12.718 8.919,-26.75c3.748,-11.089 3.792,-11.271 2.964,-12.382c-0.665,-0.892 -2.175,-1.358 -3.552,-1.096m-228.73,9.98c4.004,0.682 5.65,2.554 5.644,6.414c-0.009,4.753 -2.628,7.229 -7.664,7.245c-4.782,0.015 -6.064,-1.922 -5.603,-8.465c0.346,-4.919 2.125,-6.131 7.623,-5.194m102.59,1.649c5.764,1.107 8.985,4.865 9.655,11.266c0.911,8.702 -4.091,15.223 -11.693,15.244c-3.305,0.009 -4.687,-0.925 -5.174,-3.495c-0.233,-1.225 -0.053,-19.257 0.203,-20.416c0.546,-2.47 2.98,-3.372 7.009,-2.599" id="svg_9"/>
    <path fill-rule="evenodd" fill="#fbfbfb" stroke="#000000" d="m97,198.667l0,58.666l55.689,0l55.69,0l-0.105,-0.708c-0.058,-0.39 -0.179,-1.196 -0.268,-1.792c-0.204,-1.357 -0.237,-102.328 -0.034,-103.166c0.893,-3.677 6.008,-3.581 6.84,0.128c0.294,1.314 0.361,100.882 0.068,102.705c-0.124,0.779 -0.271,1.735 -0.325,2.125l-0.098,0.708l141.271,0l141.272,0l0,-58.666l0,-58.667l-200,0l-200,0l0,58.667m48.583,-40.847c20.119,1.376 31.945,15.617 29.74,35.812c-0.87,7.969 -5.125,15.338 -12.247,21.207c-5.546,4.571 -5.447,5.561 1.478,14.75c2.125,2.819 4.746,6.322 5.827,7.785c1.08,1.463 2.512,3.328 3.182,4.144c2.639,3.217 2.829,5.189 0.605,6.281l-0.918,0.451l-8.75,0.126c-12.561,0.182 -12.123,0.318 -16.619,-5.154c-4.648,-5.658 -6.218,-7.599 -8.625,-10.664c-7.676,-9.775 -8.691,-10.804 -10.091,-10.224c-1.312,0.543 -1.364,0.997 -1.405,12.333c-0.05,13.928 0.12,13.689 -9.76,13.714c-8.019,0.021 -9.892,-1.04 -11.027,-6.246c-0.678,-3.107 -0.903,-70.899 -0.248,-74.635c1.154,-6.585 3.543,-9.105 9.316,-9.827c1.583,-0.198 26.3,-0.075 29.542,0.147m111.334,19.345c3.161,0.096 5.724,0.255 6.603,0.41c14.725,2.59 19.519,20.18 8.462,31.051c-4.115,4.046 -4.037,4.6 1.716,12.247c5.244,6.97 4.978,7.903 -2.306,8.081c-6.991,0.171 -6.602,0.424 -14.44,-9.404c-2.872,-3.601 -3.753,-4.308 -4.85,-3.891c-0.941,0.358 -1.145,1.275 -1.281,5.758c-0.198,6.547 -0.891,7.465 -5.654,7.489c-3.876,0.019 -5.521,-0.993 -6.309,-3.881c-0.336,-1.231 -0.507,-39.373 -0.187,-41.608c0.868,-6.059 2.8,-6.722 18.246,-6.252m-123.046,0.327c-4.014,0.634 -4.586,2.26 -4.608,13.091c-0.016,8.505 0.167,9.419 2.158,10.774c2.831,1.927 11.864,1.654 15.989,-0.484c6.953,-3.602 8.191,-16.833 1.944,-20.776c-2.773,-1.751 -11.545,-3.226 -15.483,-2.605m226.653,0.848c9.009,0.903 12.541,2.335 16.898,6.85c12.555,13.007 7.018,39.03 -8.987,42.244c-1.163,0.234 -2.669,0.268 -10.768,0.249c-14.719,-0.036 -13.667,0.867 -13.667,-11.722c0,-5.503 -0.074,-8.555 -0.266,-10.924c-0.362,-4.481 -0.248,-17.978 0.167,-19.787c1.328,-5.786 6.48,-7.927 16.623,-6.91m-38.063,0.557c3.651,1.181 3.598,7.831 -0.075,9.289c-1.107,0.44 -1.897,0.516 -6.719,0.647c-2.857,0.077 -5.355,0.22 -5.703,0.325c-3.244,0.982 -3.278,6.616 -0.047,7.641c0.67,0.213 3.193,0.406 8.923,0.684c4.835,0.234 6.036,1.101 5.778,4.172c-0.407,4.856 -3.201,6.7 -10.618,7.009c-4.644,0.193 -5.688,0.57 -6.61,2.388c-1.119,2.207 -0.142,4.849 2.075,5.608c0.417,0.143 2.462,0.255 6.285,0.344c6.533,0.153 7.037,0.239 8.191,1.394c1.715,1.714 1.686,5.986 -0.051,7.635c-1.291,1.225 -1.776,1.271 -14.057,1.31c-15.168,0.049 -14.34,0.512 -14.453,-8.093c-0.125,-9.518 0.231,-33.541 0.516,-34.798c0.713,-3.149 2.49,-5.032 5.283,-5.598c0.497,-0.101 1.054,-0.217 1.238,-0.258c1.097,-0.242 19.204,0.03 20.044,0.301m107.787,0.069c2.09,0.964 2.914,3.606 2.038,6.534c-0.796,2.66 -1.981,3.113 -8.693,3.324c-5.233,0.165 -6.153,0.35 -7.466,1.506c-1.669,1.469 -1.815,3.954 -0.327,5.545c0.999,1.068 1.733,1.177 10.706,1.592c4.417,0.205 5.35,0.824 5.469,3.63c0.227,5.364 -2.49,7.284 -10.691,7.555c-5.833,0.192 -6.953,0.85 -6.949,4.075c0.005,3.614 1.029,4.089 9.165,4.255c5.476,0.112 5.79,0.135 6.583,0.493c3.998,1.803 3.275,8.784 -1,9.663c-1.508,0.311 -22.524,0.29 -23.363,-0.022c-2.8,-1.043 -2.661,0.227 -2.538,-23.199c0.116,-22.017 0.051,-21.316 2.174,-23.44c1.842,-1.842 2.741,-1.961 14.477,-1.924l9.584,0.03l0.831,0.383m60.45,0.314c1.942,1.138 1.938,1.16 -2.11,13.137c-4.743,14.032 -8.487,25.26 -8.919,26.75c-1.855,6.396 -3.315,8.028 -7.28,8.142c-6.185,0.177 -6.94,-0.651 -10.935,-11.976c-1.277,-3.621 -2.92,-8.27 -3.65,-10.333c-0.731,-2.062 -1.694,-4.8 -2.141,-6.083c-0.446,-1.284 -1.38,-3.946 -2.076,-5.917c-5.055,-14.325 -5.091,-13.917 1.246,-13.917c4.976,0 5.22,0.212 7.5,6.5c0.664,1.834 1.793,4.834 2.509,6.667c0.715,1.833 1.839,4.833 2.498,6.667c3.386,9.43 4.541,9.275 8.085,-1.084c3.895,-11.383 5.152,-14.028 7.83,-16.475c2.337,-2.136 5.727,-3.082 7.443,-2.078m-236.445,9.653c-1.696,0.621 -2.381,1.983 -2.606,5.18c-0.461,6.543 0.821,8.48 5.603,8.465c5.036,-0.016 7.655,-2.492 7.664,-7.245c0.005,-2.986 -0.811,-4.524 -2.957,-5.572c-2.027,-0.99 -6.073,-1.425 -7.704,-0.828m102.465,1.823c-1.979,0.986 -2.008,1.155 -2.146,12.494c-0.124,10.133 -0.085,10.766 0.727,12.081c1.475,2.386 6.497,2.45 10.451,0.133c7.556,-4.429 7.988,-18.363 0.716,-23.098c-2.836,-1.847 -7.671,-2.645 -9.748,-1.61" id="svg_8"/>
   </g>
  </g>
 </g>
</svg>