<?xml version="1.0" encoding="UTF-8" standalone="no"?>

<svg
   width="1066.6667"
   height="1066.6667"
   viewBox="0 0 1066.6667 1066.6667"
   xmlns="http://www.w3.org/2000/svg"><defs
     id="defs3856"><clipPath
       clipPathUnits="userSpaceOnUse"
       id="clipPath3866"><path
         d="M 0,800 H 800 V 0 H 0 Z"
         id="path3864" /></clipPath></defs><sodipodi:namedview
     id="namedview3854"
     pagecolor="#ffffff"
     bordercolor="#666666"
     borderopacity="1.0"
     inkscape:pageshadow="2"
     inkscape:pageopacity="0.0"
     inkscape:pagecheckerboard="0"
     showgrid="false"
     inkscape:zoom="0.77906244"
     inkscape:cx="533.33337"
     inkscape:cy="533.33337"
     inkscape:window-width="1920"
     inkscape:window-height="1018"
     inkscape:window-x="-8"
     inkscape:window-y="-8"
     inkscape:window-maximized="1"
     inkscape:current-layer="g3858" /><g
     id="g3858"
     inkscape:groupmode="layer"
     inkscape:label="surfer-silhouette-publicdomainvectors.org"
     transform="matrix(1.3333333,0,0,-1.3333333,0,1066.6667)"><g
       id="g3860"><g
         id="g3862"
         clip-path="url(#clipPath3866)"><path
           d="m 208.203,746.852 c -1.083,2.1 -2.218,4.174 -3.503,6.171 -3.698,5.741 -6.9,11.77 -11.124,17.216 -1.885,2.428 -6.149,2.89 -8.177,0.639 -3.874,-4.313 -7.457,-8.835 -10.827,-13.511 l 32.537,-15.825 z"
           style="fill:#a57b68;fill-opacity:1;fill-rule:nonzero;stroke:none"
           id="path3868" /><path
           d="m 362.448,772.188 c -5.255,3.88 -11.195,5.829 -17.743,6.355 -8.433,0.672 -16.09,-1.245 -23.182,-5.781 -4.378,-2.812 -7.814,-6.389 -10.343,-10.659 l 63.157,-7.371 c -2.176,6.919 -5.778,12.945 -11.889,17.456"
           style="fill:#7fbbc4;fill-opacity:1;fill-rule:nonzero;stroke:none"
           id="path3870" /><path
           d="m 210.439,742.399 c -0.74,1.486 -1.476,2.976 -2.236,4.453 l -1.094,-5.31 z"
           style="fill:#a3ad94;fill-opacity:1;fill-rule:nonzero;stroke:none"
           id="path3872" /><path
           d="m 383.875,728.778 c 10e-4,1.618 -0.05,3.239 -0.202,4.865 -0.135,1.493 -1.245,2.196 -2.06,2.866 -0.574,0.48 -1.869,-0.351 -2.508,-1.294 -0.303,-0.431 -0.67,-0.933 -1.509,-0.877 0.153,1.372 0.065,2.739 -0.151,4.096 -0.639,4.065 -1.07,8.152 -1.997,12.194 -0.322,1.398 -0.69,2.767 -1.111,4.104 l -63.157,7.371 c -1.017,-1.718 -1.893,-3.545 -2.617,-5.486 -2.047,-5.521 -2.25,-11.238 -1.875,-16.965 l 23.219,-46.65 z"
           style="fill:#8ed8cd;fill-opacity:1;fill-rule:nonzero;stroke:none"
           id="path3874" /><path
           d="m 207.109,741.542 -32.537,15.825 c -3.68,-5.105 -7.106,-10.392 -10.366,-15.795 -4.567,-7.554 -9.343,-14.964 -13.072,-23.006 -4.288,-9.239 -8.768,-18.405 -12.385,-27.924 -0.135,-0.355 -0.27,-0.709 -0.405,-1.064 l 5.438,-20.686 z"
           style="fill:#b47c5b;fill-opacity:1;fill-rule:nonzero;stroke:none"
           id="path3876" /><path
           d="m 138.344,689.578 c -1.997,-5.249 -3.987,-10.503 -5.868,-15.795 l 11.306,-4.891 z"
           style="fill:#b25241;fill-opacity:1;fill-rule:nonzero;stroke:none"
           id="path3878" /><path
           d="m 211.814,739.682 c -0.465,0.901 -0.922,1.809 -1.375,2.717 l -3.33,-0.857 z"
           style="fill:#a8d0a7;fill-opacity:1;fill-rule:nonzero;stroke:none"
           id="path3880" /><path
           d="m 306.688,739.652 c 0.089,-1.373 0.211,-2.746 0.351,-4.117 0.375,-3.704 1.078,-7.37 1.621,-11.052 0.056,-0.382 0.415,-0.853 -0.12,-1.117 -0.184,-0.089 -0.543,0.072 -0.775,0.191 -3.362,1.757 -5.326,0.528 -5.286,-3.242 0.048,-3.88 1.166,-7.602 2.652,-11.019 1.3,-2.982 2.983,-5.822 4.97,-8.466 l 19.806,-7.828 z"
           style="fill:#a8d0a7;fill-opacity:1;fill-rule:nonzero;stroke:none"
           id="path3882" /><path
           d="m 132.476,673.783 c -0.733,-2.06 -1.448,-4.128 -2.142,-6.202 l 13.448,1.311 z"
           style="fill:#b74b38;fill-opacity:1;fill-rule:nonzero;stroke:none"
           id="path3884" /><path
           d="m 204.538,636.746 40.294,18.081 c -0.305,0.97 -0.612,1.94 -0.917,2.907 -0.575,1.862 -0.583,4.081 -1.357,5.582 -2.268,4.425 -3.115,9.264 -4.791,13.823 -2.317,6.245 -4.081,12.697 -6.613,18.877 -0.782,1.876 -0.829,4.496 -1.796,5.693 -1.981,2.477 -1.381,5.687 -3.378,8.105 -0.982,1.174 -1.517,3.219 -2.219,4.856 -3.059,7.035 -5.782,14.23 -9.695,20.896 -0.793,1.349 -1.534,2.726 -2.252,4.116 l -4.705,1.86 z"
           style="fill:#b9d39a;fill-opacity:1;fill-rule:nonzero;stroke:none"
           id="path3886" /><path
           d="m 310.101,700.83 c 0.673,-0.896 1.38,-1.768 2.12,-2.618 1.006,-1.166 1.981,-1.677 3.425,-1.245 0.824,0.239 1.207,0.255 1.662,-0.79 1.071,-2.466 1.885,-5.04 2.817,-7.565 l 9.782,4.39 z"
           style="fill:#b9d39a;fill-opacity:1;fill-rule:nonzero;stroke:none"
           id="path3888" /><path
           d="m 375.256,680.546 c -0.157,1.218 -0.065,2.427 0.433,3.532 2.491,5.478 2.363,11.259 2.889,16.993 0.24,2.667 -0.51,5.709 2.62,7.362 0.487,0.256 0.247,0.751 0.327,1.135 0.863,4.087 1.989,8.064 2.156,12.344 0.089,2.3 0.194,4.582 0.194,6.866 l -53.968,-35.776 z"
           style="fill:#6dcde2;fill-opacity:1;fill-rule:nonzero;stroke:none"
           id="path3890" /><path
           d="m 207.109,741.542 -63.327,-72.65 60.756,-32.146 z"
           style="fill:#bfa56c;fill-opacity:1;fill-rule:nonzero;stroke:none"
           id="path3892" /><path
           d="m 249.542,543.201 37.262,13.572 c 0.551,1.285 1.08,2.581 1.573,3.893 0.128,0.36 0.224,0.822 0.91,0.998 0.646,-1.067 1.257,-2.194 1.68,-3.376 l 59.192,21.559 -93.005,36.341 c -0.383,-0.918 -0.782,-1.856 -1.197,-2.844 -0.321,1.297 -0.63,2.504 -0.923,3.672 l -50.496,19.73 z"
           style="fill:#cfefa2;fill-opacity:1;fill-rule:nonzero;stroke:none"
           id="path3894" /><path
           d="m 350.159,579.847 63.265,78.437 c -2.122,0.477 -4.237,0.979 -6.338,1.535 -5.701,1.518 -11.69,1.868 -17.152,4.296 -1.198,0.535 -2.14,1.453 -3.258,2.044 -4.471,2.372 -7.874,5.781 -10.093,10.286 -0.629,1.282 -1.145,2.697 -1.327,4.101 l -45.349,12.456 z"
           style="fill:#9bede0;fill-opacity:1;fill-rule:nonzero;stroke:none"
           id="path3896" /><path
           d="m 329.907,693.002 -9.782,-4.39 c 0.839,-2.276 1.774,-4.512 3.084,-6.593 0.463,-0.736 0.743,-1.646 0.927,-2.509 1.045,-4.982 2.011,-9.981 3.066,-14.964 0.925,-4.383 0.224,-6.076 -3.77,-8.137 -1.358,-0.695 -2.842,-1.134 -4.264,-1.7 -6.26,-2.483 -12.832,-3.817 -19.373,-5.327 -3.641,-0.838 -7.753,-0.742 -10.539,-4.017 -0.289,-0.343 -1.054,-0.302 -1.613,-0.375 -5.638,-0.726 -10.669,-2.834 -15.109,-6.428 -6.572,-5.342 -11.275,-12.01 -14.357,-19.859 -0.326,-0.836 -0.668,-1.667 -1.023,-2.515 l 93.005,-36.341 z"
           style="fill:#b8ecad;fill-opacity:1;fill-rule:nonzero;stroke:none"
           id="path3898" /><path
           d="m 255.034,617.016 c -0.261,1.041 -0.509,2.052 -0.738,3.068 -1.837,7.985 -4.312,15.795 -6.277,23.748 -0.908,3.679 -2.036,7.342 -3.187,10.995 l -40.294,-18.081 z"
           style="fill:#b8ecad;fill-opacity:1;fill-rule:nonzero;stroke:none"
           id="path3900" /><path
           d="m 106.196,571.467 c -0.275,-1.004 -0.706,-1.947 -0.443,-3.255 0.352,-1.709 -0.654,-3.658 -0.846,-5.525 -0.591,-5.687 -2.108,-11.236 -2.499,-16.954 -0.244,-3.545 -0.335,-3.585 -3.15,-3.649 -2.58,-0.063 -4.5,-2.076 -4.544,-4.759 -0.044,-2.643 2.057,-5.206 4.496,-5.198 1.35,0.008 1.641,-0.288 1.386,-1.637 -0.048,-0.247 -0.102,-0.461 -0.166,-0.648 l 48.816,1.465 z"
           style="fill:#d05a33;fill-opacity:1;fill-rule:nonzero;stroke:none"
           id="path3902" /><path
           d="m 433.856,547.651 c 0.032,0.392 0.06,0.786 0.078,1.181 0.014,0.494 0.158,0.823 0.653,0.926 0.607,0.136 0.759,-0.391 0.767,-0.743 0.006,-0.205 0.024,-0.408 0.048,-0.608 l 35.293,17.279 c -0.3,1.252 -0.617,2.503 -0.958,3.748 -1.939,7.131 -3.488,14.334 -3.464,21.792 0,1.253 0.655,2.483 0.255,3.641 -0.885,2.508 -0.766,5.142 -1.037,7.682 -0.672,6.148 -1.382,12.241 -3.275,18.181 -2.228,7.02 -5.509,13.392 -10.477,18.886 -4.551,5.031 -9.454,9.542 -16.13,11.595 -0.671,0.207 -1.158,0.622 -1.453,1.142 -0.894,1.573 -2.38,2.1 -3.977,2.443 -3.719,0.798 -7.457,1.528 -11.184,2.295 L 392.592,527.449 Z"
           style="fill:#71ddec;fill-opacity:1;fill-rule:nonzero;stroke:none"
           id="path3904" /><path
           d="m 143.782,668.892 -13.448,-1.311 c -1.242,-3.715 -2.413,-7.454 -3.475,-11.227 -1.78,-6.34 -3.553,-12.682 -5.462,-18.974 -1.964,-6.468 -3.617,-13.031 -5.198,-19.58 -1.725,-7.17 -3.418,-14.382 -4.856,-21.639 -1.613,-8.089 -3.417,-16.147 -5.038,-24.244 -0.031,-0.153 -0.069,-0.302 -0.109,-0.45 l 43.05,-40.16 z"
           style="fill:#cd6f44;fill-opacity:1;fill-rule:nonzero;stroke:none"
           id="path3906" /><path
           d="m 143.782,668.892 5.464,-137.585 55.292,105.439 z"
           style="fill:#d0a25f;fill-opacity:1;fill-rule:nonzero;stroke:none"
           id="path3908" /><path
           d="m 392.592,527.449 26.403,129.642 c -1.861,0.383 -3.719,0.778 -5.571,1.193 l -63.265,-78.437 z"
           style="fill:#9cf0ef;fill-opacity:1;fill-rule:nonzero;stroke:none"
           id="path3910" /><path
           d="M 204.538,636.746 149.246,531.307 249.542,543.201 Z"
           style="fill:#d9c172;fill-opacity:1;fill-rule:nonzero;stroke:none"
           id="path3912" /><path
           d="m 272.024,528.805 c -0.184,1.549 0.462,2.914 1.292,4.136 3.498,5.182 6.988,10.357 9.791,15.955 1.304,2.591 2.554,5.209 3.697,7.877 l -37.262,-13.572 22.544,-14.865 c -0.021,0.156 -0.044,0.312 -0.062,0.469"
           style="fill:#d7fdb6;fill-opacity:1;fill-rule:nonzero;stroke:none"
           id="path3914" /><path
           d="m 293.958,549.159 c 2.492,-4.033 3.427,-8.416 2.069,-13.048 -0.511,-1.724 0.192,-3.034 0.878,-4.376 0.942,-1.837 1.454,-3.641 0.591,-5.637 -0.191,-0.448 -0.335,-0.879 -0.159,-1.421 1.54,-4.677 1.681,-9.557 2.134,-14.398 l 23.685,-15.618 27.003,85.186 -59.192,-21.559 c 0.298,-0.834 0.503,-1.695 0.556,-2.581 0.161,-2.5 1.183,-4.503 2.435,-6.548"
           style="fill:#d7fdb6;fill-opacity:1;fill-rule:nonzero;stroke:none"
           id="path3916" /><path
           d="m 437.048,543.41 c 2.066,-6.548 4.15,-13.097 6.243,-19.644 1.541,-4.839 2.156,-9.798 2.476,-14.853 0.143,-2.172 -0.079,-4.336 0.216,-6.516 0.678,-4.959 2.068,-9.79 2.771,-14.692 0.048,-0.344 0.105,-0.684 0.156,-1.027 l 38.474,-27.853 c 0.315,8.298 -0.247,16.536 -0.836,24.791 -0.441,6.213 -0.999,12.425 -1.845,18.613 -0.751,5.574 -2.173,10.964 -4.169,16.124 -2.332,6.02 -4.136,12.129 -5.158,18.461 -0.982,6.052 -1.413,12.193 -2.49,18.238 -0.643,3.569 -1.346,7.115 -2.191,10.634 l -35.293,-17.279 c 0.219,-1.77 1.12,-3.325 1.646,-4.997"
           style="fill:#80e2ed;fill-opacity:1;fill-rule:nonzero;stroke:none"
           id="path3918" /><path
           d="m 423.224,505.274 c 0.034,0.138 0.069,0.275 0.104,0.413 1.757,6.909 3.722,13.759 5.374,20.698 1.691,7.095 4.578,13.905 5.154,21.266 l -41.264,-20.202 z"
           style="fill:#80e2ed;fill-opacity:1;fill-rule:nonzero;stroke:none"
           id="path3920" /><path
           d="m 453.336,463.957 c 1.654,-7.915 3.507,-15.788 5.048,-23.726 0.319,-1.664 0.635,-3.329 0.932,-4.995 l 27.039,5.475 c 0.334,5.777 0.739,11.553 0.999,17.336 0.011,0.26 0.02,0.519 0.03,0.778 l -38.474,27.853 c 1.153,-7.648 2.852,-15.186 4.426,-22.721"
           style="fill:#acf8e3;fill-opacity:1;fill-rule:nonzero;stroke:none"
           id="path3922" /><path
           d="m 419.658,487.743 c 0.355,2.339 0.858,4.68 1.235,7.005 0.568,3.533 1.441,7.037 2.331,10.526 l -30.632,22.175 z"
           style="fill:#acf8e3;fill-opacity:1;fill-rule:nonzero;stroke:none"
           id="path3924" /><path
           d="M 249.542,543.201 149.246,531.307 230.576,490.16 Z"
           style="fill:#e4c873;fill-opacity:1;fill-rule:nonzero;stroke:none"
           id="path3926" /><path
           d="m 392.592,527.449 -42.433,52.398 -27.003,-85.186 z"
           style="fill:#c6ffd7;fill-opacity:1;fill-rule:nonzero;stroke:none"
           id="path3928" /><path
           d="m 93.326,501.453 c -1.467,-1.997 -0.844,-5.362 1.476,-6.481 2.388,-1.166 2.611,-1.246 2.268,-3.714 -0.279,-1.988 -0.415,-3.968 -0.535,-5.973 -0.273,-4.709 -0.741,-9.412 -0.996,-14.119 l 68.816,8.386 z"
           style="fill:#e05a1f;fill-opacity:1;fill-rule:nonzero;stroke:none"
           id="path3930" /><path
           d="m 149.246,531.307 -48.816,-1.465 c -0.307,-0.897 -0.857,-1.153 -2.098,-0.982 -4.664,0.607 -7.599,-2.778 -6.52,-7.266 0.323,-1.341 1.345,-2.14 2.076,-3.131 0.734,-0.989 0.602,-1.166 -0.431,-1.684 -2.061,-1.029 -3.558,-2.787 -3.342,-5.152 0.208,-2.243 1.577,-3.975 3.805,-4.87 1.346,-0.542 2.655,-1.157 4.128,-1.804 -1.425,-0.983 -2.738,-1.821 -3.976,-2.747 -0.291,-0.217 -0.539,-0.472 -0.746,-0.753 l 71.029,-21.901 z"
           style="fill:#e5753e;fill-opacity:1;fill-rule:nonzero;stroke:none"
           id="path3932" /><path
           d="m 149.246,531.307 15.109,-51.755 66.221,10.608 z"
           style="fill:#e8b259;fill-opacity:1;fill-rule:nonzero;stroke:none"
           id="path3934" /><path
           d="m 276.615,492.398 c -0.371,3.419 -0.799,6.834 -1.222,10.255 -0.878,6.979 -1.741,13.974 -2.62,20.954 -0.203,1.583 -0.481,3.154 -0.687,4.729 l -22.544,14.865 -18.966,-53.041 z"
           style="fill:#e3f39e;fill-opacity:1;fill-rule:nonzero;stroke:none"
           id="path3936" /><path
           d="m 299.685,508.242 c 0.57,-4.9 0.495,-9.81 0.366,-14.705 l 23.105,1.124 -23.685,15.618 c 0.063,-0.68 0.133,-1.359 0.214,-2.037"
           style="fill:#e3f39e;fill-opacity:1;fill-rule:nonzero;stroke:none"
           id="path3938" /><path
           d="m 164.355,479.552 -68.816,-8.386 c -0.025,-0.449 -0.05,-0.899 -0.07,-1.349 -0.307,-6.882 -0.715,-13.766 -0.647,-20.673 0.052,-5.567 -0.216,-11.123 -0.184,-16.682 0.036,-6.021 0.276,-12.041 0.391,-18.054 0.064,-3.49 -0.043,-6.988 0.105,-10.477 0.166,-3.913 0.428,-7.819 0.663,-11.726 l 32.876,-22.593 z"
           style="fill:#ec7207;fill-opacity:1;fill-rule:nonzero;stroke:none"
           id="path3940" /><path
           d="m 323.156,494.661 32.468,-99.011 36.968,131.799 z"
           style="fill:#d9ffc4;fill-opacity:1;fill-rule:nonzero;stroke:none"
           id="path3942" /><path
           d="m 355.624,395.65 70.982,27.529 c -0.489,3.467 -0.887,6.947 -1.146,10.449 -0.295,4.073 -1.414,8.034 -1.668,12.074 -0.305,4.711 -0.751,9.423 -2.077,13.894 -2.236,7.602 -2.491,15.372 -2.491,23.125 0,1.668 0.179,3.344 0.434,5.022 l -27.066,39.706 z"
           style="fill:#ceffdb;fill-opacity:1;fill-rule:nonzero;stroke:none"
           id="path3944" /><path
           d="m 95.797,392.205 c 0.093,-1.54 0.182,-3.079 0.259,-4.619 0.156,-3.148 -0.02,-6.325 0.299,-9.455 0.323,-3.21 0.048,-6.429 0.391,-9.607 0.032,-0.294 0.057,-0.588 0.086,-0.881 l 31.841,1.969 z"
           style="fill:#e66700;fill-opacity:1;fill-rule:nonzero;stroke:none"
           id="path3946" /><path
           d="m 282.196,384.136 c -0.263,6.468 0.08,12.952 -0.207,19.412 -0.264,5.765 -0.104,11.522 -0.336,17.288 -0.255,6.18 -0.463,12.377 -0.814,18.557 -0.252,4.457 -0.509,8.913 -0.778,13.367 l -49.485,37.4 -23.145,-128.906 75.179,17.45 c -0.434,1.795 -0.345,3.65 -0.414,5.432"
           style="fill:#f0ee57;fill-opacity:1;fill-rule:nonzero;stroke:none"
           id="path3948" /><path
           d="m 290.565,429.42 c -1.325,-6.828 -2.22,-13.694 -3.163,-20.57 -1.229,-8.952 -2.298,-17.927 -3.784,-26.839 -0.168,-1.038 -0.26,-2.096 -0.351,-3.155 l 72.357,16.794 -62.528,47.259 c -0.759,-4.514 -1.65,-9.003 -2.531,-13.489"
           style="fill:#f0ee57;fill-opacity:1;fill-rule:nonzero;stroke:none"
           id="path3950" /><path
           d="m 300.051,493.537 c -0.026,-0.992 -0.054,-1.984 -0.079,-2.974 -0.113,-3.968 -0.767,-7.953 -1.31,-11.915 -1.134,-8.351 -3.242,-16.544 -4.08,-24.929 -0.364,-3.626 -0.884,-7.227 -1.486,-10.81 l 62.528,-47.259 -32.468,99.011 z"
           style="fill:#eaff93;fill-opacity:1;fill-rule:nonzero;stroke:none"
           id="path3952" /><path
           d="m 277.229,486.027 c -0.173,2.128 -0.383,4.25 -0.614,6.371 l -46.039,-2.238 49.485,-37.4 c -0.347,5.732 -0.716,11.46 -1.139,17.185 -0.39,5.374 -1.245,10.717 -1.693,16.082"
           style="fill:#eaff93;fill-opacity:1;fill-rule:nonzero;stroke:none"
           id="path3954" /><path
           d="M 164.355,479.552 207.431,361.254 230.576,490.16 Z"
           style="fill:#eec23f;fill-opacity:1;fill-rule:nonzero;stroke:none"
           id="path3956" /><path
           d="m 128.673,369.612 78.758,-8.358 -43.076,118.298 z"
           style="fill:#f0a813;fill-opacity:1;fill-rule:nonzero;stroke:none"
           id="path3958" /><path
           d="m 433.938,387.279 c -1.618,7.005 -3.413,13.973 -4.782,21.028 -0.954,4.946 -1.847,9.895 -2.55,14.872 L 355.624,395.65 Z"
           style="fill:#d0ffbd;fill-opacity:1;fill-rule:nonzero;stroke:none"
           id="path3960" /><path
           d="m 460.931,423.981 c 0.519,-5.493 1.246,-10.97 1.462,-16.472 0.128,-3.33 0.382,-6.876 -1.933,-9.831 -0.169,-0.215 -0.338,-0.429 -0.509,-0.642 l 25.498,26.065 c 0.183,3.152 0.375,6.304 0.499,9.457 0.106,2.718 0.249,5.436 0.407,8.153 l -27.039,-5.475 c 0.67,-3.734 1.256,-7.478 1.615,-11.255"
           style="fill:#b1f7c6;fill-opacity:1;fill-rule:nonzero;stroke:none"
           id="path3962" /><path
           d="m 454.551,390.141 c -1.171,-1.643 -2.199,-3.345 -3.102,-5.091 l 31.764,-7.757 c 0.027,1.807 0.191,3.61 0.085,5.421 -0.384,6.724 -0.751,13.446 1.197,20.043 0.393,1.318 0.512,2.763 0.48,4.152 -0.127,5.411 0.161,10.803 0.474,16.192 l -25.498,-26.065 c -1.81,-2.277 -3.692,-4.494 -5.4,-6.895"
           style="fill:#afefba;fill-opacity:1;fill-rule:nonzero;stroke:none"
           id="path3964" /><path
           d="m 283.114,377.204 c -0.22,0.493 -0.382,0.994 -0.504,1.5 l -75.179,-17.45 117.654,-74.257 30.539,108.653 -72.357,-16.794 c -0.047,-0.55 -0.095,-1.102 -0.153,-1.652"
           style="fill:#f0ea4d;fill-opacity:1;fill-rule:nonzero;stroke:none"
           id="path3966" /><path
           d="m 349.289,280.734 c 0.078,0.378 0.15,0.757 0.207,1.142 1.358,8.92 2.26,17.903 3.418,26.855 0.023,0.17 0.046,0.341 0.068,0.511 l -27.897,-22.245 z"
           style="fill:#e1ed96;fill-opacity:1;fill-rule:nonzero;stroke:none"
           id="path3968" /><path
           d="m 439.283,258.08 c -0.479,2.363 -0.208,4.384 1.573,6.349 1.821,2.004 2.475,4.718 2.459,7.441 -0.055,8.506 -0.104,17.001 -0.359,25.514 -0.177,5.622 -0.399,11.25 -0.272,16.897 0.087,4.247 -0.495,8.495 -0.67,12.752 -0.368,8.288 -0.816,16.586 -1.789,24.81 -0.655,5.542 -2.172,10.988 -2.811,16.521 -0.281,2.465 -0.65,4.912 -1.076,7.347 L 368.204,321.38 c 1.349,-6.021 2.906,-11.997 4.673,-17.928 3.046,-10.188 5.514,-20.527 7.946,-30.878 l 58.592,-15.161 c -0.044,0.223 -0.086,0.445 -0.132,0.667"
           style="fill:#e1ed96;fill-opacity:1;fill-rule:nonzero;stroke:none"
           id="path3970" /><path
           d="m 447.142,372.03 c -0.848,-4.926 -1.95,-9.567 -3.979,-14.062 -1.197,-2.644 -1.533,-5.405 -1.581,-8.314 -0.048,-2.315 1.23,-3.345 2.876,-4.072 0.977,-0.424 2.008,-0.665 2.98,-0.477 l 1.145,32.939 c -0.616,-1.977 -1.095,-3.985 -1.441,-6.014"
           style="fill:#e1ed96;fill-opacity:1;fill-rule:nonzero;stroke:none"
           id="path3972" /><path
           d="m 433.938,387.279 -78.314,8.371 -30.539,-108.653 27.897,22.245 c 0.832,6.433 1.799,12.859 2.655,19.284 0.702,5.287 1.254,10.581 2.02,15.851 0.687,4.799 1.31,9.598 1.749,14.43 0.055,0.653 -0.024,1.867 0.999,1.819 0.957,-0.047 1.501,-0.733 1.676,-1.948 0.942,-6.324 1.709,-12.68 2.675,-18.996 0.941,-6.144 2.09,-12.245 3.448,-18.302 l 68.134,54.331 c -0.68,3.882 -1.514,7.729 -2.4,11.568"
           style="fill:#e7fb98;fill-opacity:1;fill-rule:nonzero;stroke:none"
           id="path3974" /><path
           d="m 128.673,369.612 -31.841,-1.969 c 0.597,-5.979 0.702,-11.991 1.045,-17.98 0.315,-5.518 0.418,-11.075 0.886,-16.546 0.395,-4.638 0.38,-9.318 0.934,-13.95 0.531,-4.423 0.655,-8.896 0.99,-13.344 0.029,-0.39 0.057,-0.781 0.086,-1.172 l 39.794,-33.085 z"
           style="fill:#ec7500;fill-opacity:1;fill-rule:nonzero;stroke:none"
           id="path3976" /><path
           d="m 448.583,378.044 -1.145,-32.939 c 0.71,0.137 1.391,0.501 1.994,1.197 1.829,2.116 3.41,4.391 4.192,7.114 0.918,3.139 1.183,6.46 2.588,9.446 0.558,1.191 1.301,2.988 2.363,2.955 1.182,-0.047 1.997,-1.693 2.684,-2.97 1.341,-2.516 0.799,-5.335 1.533,-7.946 0.367,-1.349 1.468,-2.611 1.222,-3.936 -0.456,-2.484 -0.847,-4.935 -0.831,-7.475 0.007,-0.965 -0.439,-1.756 -1.287,-2.459 -1.436,-1.166 -2.994,-2.412 -2.283,-4.711 0.192,-0.608 -0.223,-1.102 -0.743,-1.398 -1.556,-0.886 -2.722,-2.211 -3.88,-3.522 -1.062,-1.197 -2.452,-2.466 -1.637,-4.247 0.765,-1.693 2.099,-2.796 4.215,-1.917 0.631,0.271 0.72,-0.303 0.992,-0.734 1.739,-2.779 3.656,-3.003 5.956,-0.655 0.607,0.607 1.246,1.118 1.98,1.533 1.774,0.998 3.322,2.3 4.536,3.913 4.361,5.82 7.114,12.417 9.008,19.388 0.383,1.405 0.294,2.97 1.166,4.216 1.78,2.555 2.195,5.447 2.148,8.441 -0.073,4.312 0.614,8.632 0.007,12.928 -0.14,1.01 -0.165,2.019 -0.148,3.027 l -31.764,7.757 c -1.17,-2.269 -2.122,-4.612 -2.866,-7.006"
           style="fill:#c4eca7;fill-opacity:1;fill-rule:nonzero;stroke:none"
           id="path3978" /><path
           d="m 207.431,361.254 34.074,-134.049 38.618,27.627 c 0.125,1.315 0.216,2.633 0.229,3.95 0.031,3.162 0.503,6.277 0.615,9.423 0.287,8.24 1.181,16.449 1.117,24.707 -0.015,2.402 0.177,4.776 0.551,7.475 0.823,-0.839 0.84,-1.607 0.879,-2.365 0.312,-5.334 0.583,-10.676 0.934,-16.01 0.144,-2.092 0.264,-4.224 0.743,-6.252 0.918,-3.929 3.761,-6.532 6.859,-8.784 0.952,-0.688 1.562,-1.38 1.81,-2.317 l 31.225,22.338 z"
           style="fill:#efc71a;fill-opacity:1;fill-rule:nonzero;stroke:none"
           id="path3980" /><path
           d="m 100.773,304.651 c 0.549,-7.426 1.081,-14.852 1.711,-22.272 0.425,-4.992 0.94,-9.979 1.493,-14.965 l 36.59,4.152 z"
           style="fill:#e46900;fill-opacity:1;fill-rule:nonzero;stroke:none"
           id="path3982" /><path
           d="m 140.567,271.566 66.864,89.688 -78.758,8.358 z"
           style="fill:#f09200;fill-opacity:1;fill-rule:nonzero;stroke:none"
           id="path3984" /><path
           d="M 241.505,227.205 207.431,361.254 140.567,271.566 Z"
           style="fill:#efa100;fill-opacity:1;fill-rule:nonzero;stroke:none"
           id="path3986" /><path
           d="m 103.977,267.414 c 0.055,-0.501 0.108,-1 0.164,-1.501 0.782,-6.891 1.517,-13.781 2.691,-20.626 0.905,-5.291 1.106,-10.706 2.184,-15.954 l 31.551,42.233 z"
           style="fill:#e15c00;fill-opacity:1;fill-rule:nonzero;stroke:none"
           id="path3988" /><path
           d="m 140.567,271.566 -31.551,-42.233 c 0.015,-0.075 0.028,-0.149 0.044,-0.224 1.597,-7.593 2.731,-15.267 4.295,-22.87 1.582,-7.657 3.179,-15.323 4.808,-22.982 1.517,-7.138 3.002,-14.276 4.631,-21.391 1.422,-6.188 3.067,-12.314 4.489,-18.502 0.515,-2.23 1.137,-4.431 1.766,-6.631 l 11.197,0.142 z"
           style="fill:#e75b00;fill-opacity:1;fill-rule:nonzero;stroke:none"
           id="path3990" /><path
           d="m 324.442,169.664 3.286,2.37 c 0.152,0.559 0.311,1.118 0.48,1.674 1.804,5.94 3.529,11.897 4.886,17.958 0.831,3.697 0.959,7.482 1.135,11.236 0.167,3.482 -0.016,7.002 -0.24,10.493 -0.224,3.545 -0.631,7.09 -1.086,10.604 -0.528,4.009 -0.926,7.778 1.102,11.722 2.81,5.438 5.19,11.148 5.909,17.352 0.543,4.799 1.086,9.599 1.573,14.398 0.136,1.262 0.247,2.427 1.43,3.242 3.56,2.465 5.543,6.027 6.372,10.021 l -24.204,6.263 z"
           style="fill:#ecc64f;fill-opacity:1;fill-rule:nonzero;stroke:none"
           id="path3992" /><path
           d="m 439.415,257.413 -58.592,15.161 c 0.322,-1.371 0.644,-2.742 0.966,-4.113 0.83,-3.49 2.172,-6.7 5.15,-8.88 3.138,-2.3 3.729,-5.909 4.68,-9.207 1.029,-3.554 1.117,-7.386 2.132,-10.964 1.503,-5.286 3.964,-10.206 6.711,-14.922 l 39.696,28.628 c -0.216,1.436 -0.462,2.868 -0.743,4.297"
           style="fill:#ecc64f;fill-opacity:1;fill-rule:nonzero;stroke:none"
           id="path3994" /><path
           d="m 274.766,204.13 c 0.202,1.619 0.406,3.238 0.619,4.856 0.751,5.758 1.382,11.563 1.925,17.361 0.303,3.145 0.702,6.284 0.99,9.423 0.351,3.785 0.614,7.57 0.958,11.354 0.242,2.571 0.622,5.139 0.865,7.708 l -38.618,-27.627 z"
           style="fill:#f0b815;fill-opacity:1;fill-rule:nonzero;stroke:none"
           id="path3996" /><path
           d="M 325.085,286.997 293.86,264.659 c 0.104,-0.39 0.151,-0.82 0.123,-1.317 -0.12,-2.035 -0.192,-4.113 0.08,-6.132 0.917,-6.972 0.271,-13.87 -1.038,-20.689 -1.717,-8.865 -3.386,-17.728 -3.362,-26.784 0.017,-5.466 0.147,-10.93 0.623,-16.376 l 34.156,-23.697 z"
           style="fill:#f0b815;fill-opacity:1;fill-rule:nonzero;stroke:none"
           id="path3998" /><path
           d="m 140.246,136.875 101.259,90.33 -100.938,44.361 z"
           style="fill:#ee8400;fill-opacity:1;fill-rule:nonzero;stroke:none"
           id="path4000" /><path
           d="m 326.903,168.679 c 0.248,1.124 0.521,2.242 0.825,3.355 l -3.286,-2.37 z"
           style="fill:#e6a659;fill-opacity:1;fill-rule:nonzero;stroke:none"
           id="path4002" /><path
           d="m 443.101,231.809 c -0.554,1.981 -0.996,3.994 -1.214,6.068 -0.542,5.087 -0.966,10.183 -1.729,15.239 l -39.696,-28.628 c 0.813,-1.395 1.65,-2.774 2.496,-4.138 2.683,-4.336 4.064,-8.64 3.984,-13.576 -0.111,-7.082 -0.263,-14.197 0.719,-21.208 0.767,-5.422 2.109,-10.796 3.577,-16.084 0.495,-1.803 1.182,-3.648 1.933,-5.42 1.39,-3.235 2.763,-6.517 3.817,-9.831 1.956,-6.148 3.298,-12.497 4.79,-18.789 0.411,-1.749 0.814,-3.5 1.21,-5.253 l 14.608,-5.851 z"
           style="fill:#e6a659;fill-opacity:1;fill-rule:nonzero;stroke:none"
           id="path4004" /><path
           d="m 450.664,142.889 c 0.363,6.147 0.955,12.287 1.3,18.433 0.574,10.453 1.708,20.882 0.893,31.391 -0.327,4.183 -0.853,8.296 -1.676,12.392 -1.054,5.303 -2.732,10.414 -4.375,15.556 -1.184,3.726 -2.652,7.378 -3.705,11.148 l -5.505,-107.471 z"
           style="fill:#d1b168;fill-opacity:1;fill-rule:nonzero;stroke:none"
           id="path4006" /><path
           d="m 251.149,134.303 13.687,6.604 c 0.243,1.116 0.487,2.232 0.719,3.351 1.677,8.056 3.082,16.163 4.344,24.283 1.022,6.589 1.821,13.199 2.795,19.795 0.782,5.254 1.414,10.524 2.072,15.794 l -33.261,23.075 z"
           style="fill:#f09500;fill-opacity:1;fill-rule:nonzero;stroke:none"
           id="path4008" /><path
           d="m 290.286,193.361 c 0.197,-2.249 0.451,-4.493 0.782,-6.733 0.535,-3.609 0.679,-7.315 1.302,-10.892 0.926,-5.271 1.66,-10.573 2.379,-15.875 0.193,-1.418 0.375,-2.838 0.546,-4.258 l 29.147,14.061 z"
           style="fill:#f09500;fill-opacity:1;fill-rule:nonzero;stroke:none"
           id="path4010" /><path
           d="m 251.149,134.303 -9.644,92.902 -101.259,-90.33 z"
           style="fill:#ee8100;fill-opacity:1;fill-rule:nonzero;stroke:none"
           id="path4012" /><path
           d="m 450.257,124.934 c 0.03,5.846 0.052,11.713 0.38,17.519 0.009,0.146 0.019,0.291 0.027,0.436 l -13.068,-18.551 z"
           style="fill:#c68e5b;fill-opacity:1;fill-rule:nonzero;stroke:none"
           id="path4014" /><path
           d="m 240.542,70.012 10.607,64.291 -110.903,2.572 z"
           style="fill:#eb6f00;fill-opacity:1;fill-rule:nonzero;stroke:none"
           id="path4016" /><path
           d="m 129.049,136.733 c 0.802,-2.802 1.616,-5.603 2.243,-8.462 0.365,-1.66 0.849,-3.294 1.387,-4.918 l 7.567,13.522 z"
           style="fill:#e14300;fill-opacity:1;fill-rule:nonzero;stroke:none"
           id="path4018" /><path
           d="m 295.295,155.603 c 0.548,-4.51 0.998,-9.036 1.387,-13.565 0.415,-4.808 1.27,-9.679 -0.336,-14.445 -1.389,-4.16 -1.884,-8.408 -1.884,-12.769 0,-1.749 -0.511,-3.449 -1.406,-5.006 -1.421,-2.444 -2.923,-4.847 -4.2,-7.355 -1.577,-3.117 -3.355,-6.091 -5.416,-8.874 l 22.98,-28.976 c 1.523,2.692 3.033,5.393 4.723,7.985 0.32,0.493 0.655,0.972 0.997,1.447 l 12.302,95.619 z"
           style="fill:#f07f00;fill-opacity:1;fill-rule:nonzero;stroke:none"
           id="path4020" /><path
           d="m 260.436,122.594 c 1.577,6.077 3.063,12.176 4.4,18.313 l -13.687,-6.604 z"
           style="fill:#f07f00;fill-opacity:1;fill-rule:nonzero;stroke:none"
           id="path4022" /><path
           d="m 422.988,130.189 c 0.902,-3.975 1.767,-7.958 2.595,-11.949 l 12.013,6.098 z"
           style="fill:#ed811c;fill-opacity:1;fill-rule:nonzero;stroke:none"
           id="path4024" /><path
           d="m 312.14,74.045 c 2.64,3.653 5.854,6.852 8.25,10.691 2.483,3.977 3.49,8.146 1.493,12.664 -0.176,0.383 -0.319,0.767 -0.216,1.222 0.872,4.081 0.2,8.106 -0.486,12.113 -0.208,1.279 -0.399,2.604 0,3.786 0.958,2.763 0.559,5.549 -0.128,8.168 -1.19,4.504 -0.647,8.905 0.096,13.321 1.086,6.514 2.475,12.983 3.497,19.507 0.684,4.403 1.295,8.821 2.257,13.162 l -2.461,0.985 z"
           style="fill:#ed811c;fill-opacity:1;fill-rule:nonzero;stroke:none"
           id="path4026" /><path
           d="m 437.596,124.338 -12.013,-6.098 c 0.034,-0.159 0.067,-0.317 0.101,-0.477 0.718,-3.482 1.558,-7.028 0.951,-10.589 -0.879,-5.157 -0.727,-10.197 0.838,-15.203 0.359,-1.135 0.918,-2.371 0.615,-3.506 -1.118,-4.032 -0.36,-8.233 -1.549,-12.338 -1.485,-5.166 0.383,-10.157 2.802,-14.74 0.339,-0.64 0.669,-1.283 0.988,-1.928 l 25.269,-0.057 z"
           style="fill:#e36f38;fill-opacity:1;fill-rule:nonzero;stroke:none"
           id="path4028" /><path
           d="m 455.598,59.402 10.3,8.499 c -1.482,1.992 -2.579,4.398 -3.721,6.629 -1.845,3.585 -3.242,7.378 -4.799,11.084 -1.558,3.689 -2.955,7.467 -2.5,11.745 0.31,2.996 -0.105,6.086 -1.333,9 -1.039,2.444 -2.189,4.944 -2.636,7.538 -0.622,3.506 -0.671,7.092 -0.653,10.702 0,0.111 0,0.222 0.001,0.335 l -12.661,-0.596 z"
           style="fill:#cc7447;fill-opacity:1;fill-rule:nonzero;stroke:none"
           id="path4030" /><path
           d="m 240.542,70.012 2.735,-0.404 c 1.615,3.891 3.099,7.835 4.503,11.806 3.13,8.864 6.276,17.711 8.784,26.79 1.325,4.79 2.624,9.584 3.872,14.39 l -9.287,11.709 z"
           style="fill:#eb7500;fill-opacity:1;fill-rule:nonzero;stroke:none"
           id="path4032" /><path
           d="m 280.176,89.615 c -0.798,-0.87 -1.605,-2.188 -2.723,-2.116 -1.269,0.08 -1.517,-0.68 -2.099,-1.302 -1.806,-1.932 -2.692,-4.575 -4.561,-6.38 -2.954,-2.835 -4.934,-6.004 -5.222,-10.158 -0.075,-1.081 -0.255,-2.149 -0.567,-3.255 l 39.114,-5.768 c 0.088,0.144 0.175,0.286 0.262,0.431 0.694,1.174 1.368,2.36 2.04,3.546 l -22.98,28.976 c -1.016,-1.373 -2.095,-2.702 -3.264,-3.974"
           style="fill:#eb7500;fill-opacity:1;fill-rule:nonzero;stroke:none"
           id="path4034" /><path
           d="m 140.246,136.875 -7.567,-13.522 c 0.845,-2.557 1.823,-5.085 2.692,-7.634 2.036,-5.99 4.017,-11.994 6.428,-17.839 2.356,-5.702 4.488,-11.524 7.187,-17.073 0.302,-0.62 0.602,-1.243 0.903,-1.865 l 90.653,-8.93 z"
           style="fill:#e75a00;fill-opacity:1;fill-rule:nonzero;stroke:none"
           id="path4036" /><path
           d="m 473.799,56.019 c -0.611,0.661 -1.39,1.615 -1.113,2.334 0.447,1.149 -0.202,1.764 -0.639,2.475 -1.039,1.668 -1.917,3.227 -3.73,4.583 -0.924,0.693 -1.714,1.547 -2.419,2.49 l -10.3,-8.499 z"
           style="fill:#bb5f44;fill-opacity:1;fill-rule:nonzero;stroke:none"
           id="path4038" /><path
           d="m 472.733,29.549 c 0.286,0.202 0.572,0.408 0.854,0.623 2.348,1.781 3.802,4.09 4.226,7.322 0.438,3.291 -0.472,6.381 -0.313,9.599 0.168,3.393 -1.325,6.387 -3.682,8.904 -0.005,0.007 -0.012,0.014 -0.019,0.022 l -18.201,3.383 z"
           style="fill:#b94d38;fill-opacity:1;fill-rule:nonzero;stroke:none"
           id="path4040" /><path
           d="m 435.521,45.615 c 0.125,-0.498 0.247,-0.997 0.361,-1.5 1.181,-5.167 2.73,-10.221 6.562,-14.19 2.276,-2.348 4.776,-4.487 8.098,-4.984 0.458,-0.066 0.914,-0.125 1.37,-0.176 l 3.686,34.637 z"
           style="fill:#d35330;fill-opacity:1;fill-rule:nonzero;stroke:none"
           id="path4042" /><path
           d="m 430.329,59.459 c 2.209,-4.444 3.976,-9.026 5.192,-13.844 l 20.077,13.787 z"
           style="fill:#e35d0e;fill-opacity:1;fill-rule:nonzero;stroke:none"
           id="path4044" /><path
           d="m 229.076,51.075 c 1.376,0.17 2.691,0.573 4.059,1.384 2.699,1.581 3.976,3.913 5.294,6.533 1.127,2.228 2.183,4.486 3.192,6.763 l -1.079,4.257 z"
           style="fill:#da5900;fill-opacity:1;fill-rule:nonzero;stroke:none"
           id="path4046" /><path
           d="m 149.889,78.942 c 3.089,-6.384 6.147,-12.806 9.829,-18.897 3.53,-5.829 6.924,-11.722 11.451,-16.864 0.368,-0.424 0.734,-1.087 1.182,-1.166 3.761,-0.656 7.554,-2.476 11.291,0.174 0.727,0.529 1.597,0.879 2.436,1.232 3.889,1.572 7.642,3.425 11.61,4.879 3.458,1.267 6.7,2.817 10.469,3.161 5.862,0.527 11.675,-0.112 17.48,-0.44 1.223,-0.069 2.351,-0.081 3.439,0.054 l 11.466,18.937 z"
           style="fill:#de4e00;fill-opacity:1;fill-rule:nonzero;stroke:none"
           id="path4048" /><path
           d="m 241.621,65.755 c 0.567,1.278 1.12,2.561 1.656,3.853 l -2.735,0.404 z"
           style="fill:#e66b00;fill-opacity:1;fill-rule:nonzero;stroke:none"
           id="path4050" /><path
           d="m 264.948,66.194 c -1.013,-3.45 -1.325,-7.018 1.055,-10.277 3.353,-4.584 8.128,-6.604 13.447,-7.594 4.025,-0.751 8.08,-1.141 12.041,0.494 5.717,2.37 9.542,6.704 12.627,11.819 l -39.114,5.768 c -0.02,-0.07 -0.035,-0.139 -0.056,-0.21"
           style="fill:#e66b00;fill-opacity:1;fill-rule:nonzero;stroke:none"
           id="path4052" /><path
           d="m 472.733,29.549 -17.135,29.853 -3.686,-34.637 c 7.478,-0.856 14.555,0.367 20.821,4.784"
           style="fill:#c05237;fill-opacity:1;fill-rule:nonzero;stroke:none"
           id="path4054" /></g></g></g></svg>
